<svg height="512" viewBox="0 0 128 128" width="512" xmlns="http://www.w3.org/2000/svg" xmlns:xlink="http://www.w3.org/1999/xlink"><linearGradient id="a" gradientUnits="userSpaceOnUse" x1="116.999" x2="11.002" y1="116.999" y2="11.002"><stop offset="0" stop-color="#5360d9"/><stop offset="1" stop-color="#79d5dd"/></linearGradient><path d="m66.23 6.5a1.75 1.75 0 0 1 1.75-1.75h4.145a1.75 1.75 0 0 1 0 3.5h-4.145a1.75 1.75 0 0 1 -1.75-1.75zm57.02 6v62.11a7.759 7.759 0 0 1 -7.75 7.75h-.207v33.14a7.759 7.759 0 0 1 -7.75 7.75h-95.043a7.759 7.759 0 0 1 -7.75-7.75v-17.875a1.75 1.75 0 0 1 3.5 0v17.875a4.255 4.255 0 0 0 4.25 4.25h95.043a4.254 4.254 0 0 0 4.25-4.25v-34.856c0-.011 0-.022 0-.034s0-.022 0-.034v-4.213h-103.543v12.012a1.75 1.75 0 0 1 -3.5 0v-34.982a7.759 7.759 0 0 1 7.75-7.75h.21v-33.143a7.759 7.759 0 0 1 7.75-7.75h40.54a1.75 1.75 0 0 1 0 3.5h-40.54a4.255 4.255 0 0 0 -4.25 4.25v33.143h91.333a7.758 7.758 0 0 1 7.75 7.75v25.467h.207a4.255 4.255 0 0 0 4.25-4.25v-62.11a4.255 4.255 0 0 0 -4.25-4.25h-37.375a1.75 1.75 0 0 1 0-3.5h37.375a7.759 7.759 0 0 1 7.75 7.75zm-11.457 60.363v-8.5h-14.231a1.75 1.75 0 0 1 0-3.5h14.231v-7.47a4.254 4.254 0 0 0 -4.25-4.25h-95.043a4.255 4.255 0 0 0 -4.25 4.25v7.47h80.333a1.75 1.75 0 0 1 0 3.5h-80.333v8.5zm-82.876-62.113a1.75 1.75 0 0 0 0 3.5h9a1.75 1.75 0 0 0 0-3.5zm54.961 24.721a1.75 1.75 0 0 1 -1.75-1.75v-12a1.75 1.75 0 0 1 1.75-1.75h28.622a1.75 1.75 0 0 1 1.75 1.75v12a1.75 1.75 0 0 1 -1.75 1.75zm1.75-3.5h25.122v-8.5h-25.122zm-7.75 81.446a7.75 7.75 0 1 1 7.75-7.75 7.759 7.759 0 0 1 -7.75 7.75zm0-3.5a4.25 4.25 0 1 0 -4.25-4.25 4.255 4.255 0 0 0 4.25 4.25zm19.375 3.5a7.75 7.75 0 1 1 7.75-7.75 7.759 7.759 0 0 1 -7.75 7.75zm0-3.5a4.25 4.25 0 1 0 -4.25-4.25 4.255 4.255 0 0 0 4.25 4.25zm-51.086-2.5a1.75 1.75 0 0 0 0-3.5h-28a1.75 1.75 0 0 0 0 3.5z" fill="url(#a)"/></svg>