<svg height="512" viewBox="0 0 128 128" width="512" xmlns="http://www.w3.org/2000/svg"><g><g><rect fill="#4651b8" height="74.107" rx="6" width="107.044" x="14.456" y="6.5"/><path d="m83.878 21.72h28.622v12h-28.622z" fill="#f5ddcd"/><rect fill="#5360d9" height="74.107" rx="6" width="107.044" x="6.5" y="47.393"/><g fill="#f5ddcd"><path d="m6.5 62.613h107.044v12h-107.044z"/><g><circle cx="77.878" cy="105.667" r="6"/><circle cx="97.253" cy="105.667" r="6"/></g></g></g><g fill="#0f1336"><path d="m67.98 8.25h4.145a1.75 1.75 0 0 0 0-3.5h-4.145a1.75 1.75 0 0 0 0 3.5z"/><path d="m115.5 4.75h-37.375a1.75 1.75 0 0 0 0 3.5h37.375a4.255 4.255 0 0 1 4.25 4.25v62.11a4.255 4.255 0 0 1 -4.25 4.25h-.207v-25.467a7.758 7.758 0 0 0 -7.75-7.75h-91.333v-33.143a4.255 4.255 0 0 1 4.25-4.25h40.54a1.75 1.75 0 0 0 0-3.5h-40.54a7.759 7.759 0 0 0 -7.75 7.75v33.143h-.21a7.759 7.759 0 0 0 -7.75 7.75v34.982a1.75 1.75 0 0 0 3.5 0v-12.012h103.543v4.213.034s0 .023 0 .034v34.856a4.254 4.254 0 0 1 -4.25 4.25h-95.043a4.255 4.255 0 0 1 -4.25-4.25v-17.875a1.75 1.75 0 0 0 -3.5 0v17.875a7.759 7.759 0 0 0 7.75 7.75h95.043a7.759 7.759 0 0 0 7.75-7.75v-33.14h.207a7.759 7.759 0 0 0 7.75-7.75v-62.11a7.759 7.759 0 0 0 -7.75-7.75zm-107.25 68.113v-8.5h80.333a1.75 1.75 0 0 0 0-3.5h-80.333v-7.47a4.255 4.255 0 0 1 4.25-4.25h95.043a4.254 4.254 0 0 1 4.25 4.25v7.47h-14.231a1.75 1.75 0 0 0 0 3.5h14.231v8.5z"/><path d="m28.917 10.75a1.75 1.75 0 0 0 0 3.5h9a1.75 1.75 0 0 0 0-3.5z"/><path d="m112.5 35.471a1.75 1.75 0 0 0 1.75-1.75v-12a1.75 1.75 0 0 0 -1.75-1.75h-28.622a1.75 1.75 0 0 0 -1.75 1.75v12a1.75 1.75 0 0 0 1.75 1.75zm-26.872-12h25.122v8.5h-25.122z"/><path d="m85.628 105.667a7.75 7.75 0 1 0 -7.75 7.75 7.759 7.759 0 0 0 7.75-7.75zm-12 0a4.25 4.25 0 1 1 4.25 4.25 4.255 4.255 0 0 1 -4.25-4.25z"/><path d="m105 105.667a7.75 7.75 0 1 0 -7.75 7.75 7.759 7.759 0 0 0 7.75-7.75zm-12 0a4.25 4.25 0 1 1 4.25 4.25 4.255 4.255 0 0 1 -4.25-4.25z"/><path d="m46.167 107.417a1.75 1.75 0 0 0 0-3.5h-28a1.75 1.75 0 0 0 0 3.5z"/></g></g></svg>