<svg height="512" viewBox="0 0 128 128" width="512" xmlns="http://www.w3.org/2000/svg"><g><path d="m115.5 4.75h-95.04a7.759 7.759 0 0 0 -7.75 7.75v33.143h-.21a7.759 7.759 0 0 0 -7.75 7.75v62.107a7.759 7.759 0 0 0 7.75 7.75h95.043a7.759 7.759 0 0 0 7.75-7.75v-33.14h.207a7.759 7.759 0 0 0 7.75-7.75v-62.11a7.759 7.759 0 0 0 -7.75-7.75zm-103 44.393h95.043a4.254 4.254 0 0 1 4.25 4.25v7.47h-103.543v-7.47a4.255 4.255 0 0 1 4.25-4.25zm-4.25 15.22h103.543v8.5h-103.543zm99.293 55.387h-95.043a4.255 4.255 0 0 1 -4.25-4.25v-39.137h103.543v39.137a4.254 4.254 0 0 1 -4.25 4.25zm12.207-45.14a4.255 4.255 0 0 1 -4.25 4.25h-.207v-25.467a7.758 7.758 0 0 0 -7.75-7.75h-91.333v-33.143a4.255 4.255 0 0 1 4.25-4.25h95.04a4.255 4.255 0 0 1 4.25 4.25z"/><path d="m37.917 10.75h-9a1.75 1.75 0 0 0 0 3.5h9a1.75 1.75 0 0 0 0-3.5z"/><path d="m112.5 19.971h-28.622a1.75 1.75 0 0 0 -1.75 1.75v12a1.75 1.75 0 0 0 1.75 1.75h28.622a1.75 1.75 0 0 0 1.75-1.75v-12a1.75 1.75 0 0 0 -1.75-1.75zm-1.75 12h-25.122v-8.5h25.122z"/><path d="m77.878 97.917a7.75 7.75 0 1 0 7.75 7.75 7.759 7.759 0 0 0 -7.75-7.75zm0 12a4.25 4.25 0 1 1 4.25-4.25 4.255 4.255 0 0 1 -4.25 4.25z"/><path d="m97.253 97.917a7.75 7.75 0 1 0 7.75 7.75 7.759 7.759 0 0 0 -7.75-7.75zm0 12a4.25 4.25 0 1 1 4.25-4.25 4.255 4.255 0 0 1 -4.25 4.25z"/><path d="m46.167 103.917h-28a1.75 1.75 0 0 0 0 3.5h28a1.75 1.75 0 0 0 0-3.5z"/></g></svg>